<svg width="144" height="40" viewBox="0 0 144 40" fill="none" xmlns="http://www.w3.org/2000/svg">
<rect x="0.5" y="0.5" width="143" height="39" rx="19.5" fill="white"/>
<rect x="0.5" y="0.5" width="143" height="39" rx="19.5" stroke="#D9D9D9"/>
<g clip-path="url(#clip0_3056_7137)">
<mask id="mask0_3056_7137" style="mask-type:luminance" maskUnits="userSpaceOnUse" x="10" y="10" width="20" height="20">
<path d="M19.9998 28.3333C21.0944 28.3346 22.1784 28.1197 23.1896 27.7008C24.2009 27.282 25.1194 26.6674 25.8923 25.8925C26.6673 25.1195 27.2818 24.201 27.7007 23.1898C28.1196 22.1785 28.3345 21.0945 28.3332 20C28.3345 18.9054 28.1196 17.8214 27.7007 16.8102C27.2818 15.7989 26.6673 14.8805 25.8923 14.1075C25.1194 13.3325 24.2009 12.718 23.1896 12.2991C22.1784 11.8802 21.0944 11.6653 19.9998 11.6666C18.9053 11.6653 17.8213 11.8802 16.81 12.2991C15.7988 12.718 14.8803 13.3325 14.1073 14.1075C13.3324 14.8805 12.7179 15.7989 12.299 16.8102C11.8801 17.8214 11.6652 18.9054 11.6665 20C11.6652 21.0945 11.8801 22.1785 12.299 23.1898C12.7179 24.201 13.3324 25.1195 14.1073 25.8925C14.8803 26.6674 15.7988 27.282 16.81 27.7008C17.8213 28.1197 18.9053 28.3346 19.9998 28.3333Z" fill="white" stroke="white" stroke-width="2" stroke-linejoin="round"/>
<path d="M16.6665 20L19.1665 22.5L24.1665 17.5" stroke="black" stroke-width="2" stroke-linecap="round" stroke-linejoin="round"/>
</mask>
<g mask="url(#mask0_3056_7137)">
<path d="M10 10H30V30H10V10Z" fill="#358162"/>
</g>
</g>
<path d="M39.957 25.231C38.445 25.231 37.1943 24.7363 36.205 23.747C35.2203 22.753 34.728 21.493 34.728 19.967C34.728 18.4643 35.2343 17.2183 36.247 16.229C37.2597 15.2397 38.5057 14.745 39.985 14.745C40.4843 14.745 40.9533 14.8057 41.392 14.927C41.8353 15.0483 42.2437 15.2257 42.617 15.459C42.9903 15.6923 43.275 15.9163 43.471 16.131C43.6717 16.3457 43.772 16.453 43.772 16.453L42.869 17.3C42.869 17.3 42.7803 17.2067 42.603 17.02C42.4257 16.8333 42.204 16.6583 41.938 16.495C41.6767 16.327 41.385 16.1987 41.063 16.11C40.7457 16.0167 40.3817 15.97 39.971 15.97C38.8837 15.97 37.962 16.3387 37.206 17.076C36.45 17.8087 36.072 18.7723 36.072 19.967C36.072 21.1617 36.4453 22.1347 37.192 22.886C37.9387 23.6327 38.8557 24.006 39.943 24.006C40.3583 24.006 40.7433 23.95 41.098 23.838C41.4527 23.726 41.7863 23.5697 42.099 23.369C42.4163 23.1683 42.6613 22.9747 42.834 22.788C43.0113 22.6013 43.1 22.508 43.1 22.508L44.024 23.355C44.024 23.355 43.9143 23.481 43.695 23.733C43.4757 23.9803 43.163 24.2277 42.757 24.475C42.3557 24.7177 41.9217 24.9043 41.455 25.035C40.9883 25.1657 40.489 25.231 39.957 25.231ZM48.766 25.231C47.6413 25.231 46.722 24.8623 46.008 24.125C45.2986 23.3877 44.944 22.4637 44.944 21.353C44.944 20.2283 45.3033 19.302 46.022 18.574C46.7453 17.8413 47.66 17.475 48.766 17.475C49.872 17.475 50.7866 17.846 51.51 18.588C52.2333 19.3253 52.595 20.247 52.595 21.353C52.595 22.459 52.238 23.383 51.524 24.125C50.81 24.8623 49.8906 25.231 48.766 25.231ZM48.766 24.069C49.4893 24.069 50.0913 23.817 50.572 23.313C51.0526 22.809 51.293 22.1557 51.293 21.353C51.293 20.5503 51.0503 19.897 50.565 19.393C50.0843 18.889 49.4846 18.637 48.766 18.637C48.038 18.637 47.4336 18.889 46.953 19.393C46.477 19.8923 46.239 20.5457 46.239 21.353C46.239 22.1557 46.477 22.809 46.953 23.313C47.429 23.817 48.0333 24.069 48.766 24.069ZM54.1623 25V17.706H55.3873V18.917L55.2683 18.749H55.4293C55.6533 18.3757 55.98 18.07 56.4093 17.832C56.8386 17.594 57.296 17.475 57.7813 17.475C58.3366 17.475 58.8126 17.6033 59.2093 17.86C59.6106 18.112 59.893 18.4667 60.0563 18.924C60.3083 18.4713 60.656 18.1167 61.0993 17.86C61.5473 17.6033 62.049 17.475 62.6043 17.475C63.435 17.475 64.0673 17.7153 64.5013 18.196C64.9353 18.6767 65.1523 19.3463 65.1523 20.205V25H63.8713V20.443C63.8713 19.8223 63.7336 19.3627 63.4583 19.064C63.1876 18.7653 62.777 18.616 62.2263 18.616C61.6943 18.616 61.2393 18.826 60.8613 19.246C60.4833 19.6613 60.2943 20.184 60.2943 20.814V25H59.0133V20.443C59.0133 19.8177 58.8733 19.3557 58.5933 19.057C58.318 18.7583 57.9096 18.609 57.3683 18.609C56.8363 18.609 56.3813 18.8237 56.0033 19.253C55.63 19.6823 55.4433 20.1957 55.4433 20.793V25H54.1623ZM67.0959 28.045V17.706H68.3349V19.211L68.0549 18.861H68.3769C68.6149 18.4457 68.9626 18.112 69.4199 17.86C69.8772 17.6033 70.3836 17.475 70.9389 17.475C71.9376 17.475 72.7682 17.832 73.4309 18.546C74.0982 19.2553 74.4319 20.191 74.4319 21.353C74.4319 22.5057 74.0912 23.4413 73.4099 24.16C72.7332 24.874 71.9166 25.231 70.9599 25.231C70.3719 25.231 69.8516 25.112 69.3989 24.874C68.9509 24.636 68.6242 24.328 68.4189 23.95H68.3769V28.045H67.0959ZM70.7359 24.111C71.4359 24.111 72.0099 23.852 72.4579 23.334C72.9059 22.816 73.1299 22.151 73.1299 21.339C73.1299 20.513 72.8989 19.8503 72.4369 19.351C71.9749 18.8517 71.4079 18.602 70.7359 18.602C70.0546 18.602 69.4806 18.8587 69.0139 19.372C68.5519 19.8853 68.3209 20.5433 68.3209 21.346C68.3209 22.158 68.5449 22.823 68.9929 23.341C69.4456 23.8543 70.0266 24.111 70.7359 24.111ZM75.9963 25V14.822H77.2773V25H75.9963ZM82.5602 25.231C81.4682 25.231 80.5769 24.8717 79.8862 24.153C79.1955 23.4297 78.8502 22.4963 78.8502 21.353C78.8502 20.2517 79.1862 19.33 79.8582 18.588C80.5302 17.846 81.4052 17.475 82.4832 17.475C83.5332 17.475 84.3732 17.7947 85.0032 18.434C85.6379 19.0687 85.9552 19.869 85.9552 20.835V21.654H79.5852V20.625H84.6532C84.6299 20.0557 84.4269 19.5797 84.0442 19.197C83.6615 18.8097 83.1412 18.616 82.4832 18.616C81.7972 18.616 81.2349 18.861 80.7962 19.351C80.3575 19.841 80.1382 20.506 80.1382 21.346C80.1382 22.2093 80.3739 22.8813 80.8452 23.362C81.3165 23.8427 81.9115 24.083 82.6302 24.083C82.9522 24.083 83.2322 24.041 83.4702 23.957C83.7129 23.873 83.9345 23.7563 84.1352 23.607C84.3405 23.453 84.5692 23.2103 84.8212 22.879L85.7872 23.488C85.5072 23.9547 85.2155 24.3023 84.9122 24.531C84.6089 24.755 84.2729 24.9277 83.9042 25.049C83.5402 25.1703 83.0922 25.231 82.5602 25.231ZM90.1807 25.231C89.5787 25.231 89.0957 25.049 88.7317 24.685C88.3724 24.321 88.1927 23.8263 88.1927 23.201V15.746H89.4737V22.97C89.4737 23.334 89.5484 23.607 89.6977 23.789C89.8517 23.971 90.0874 24.062 90.4047 24.062C90.4887 24.062 90.5844 24.0503 90.6917 24.027C90.8037 24.0037 90.9344 23.9617 91.0837 23.901C91.2377 23.8403 91.3147 23.81 91.3147 23.81L91.4967 24.909C91.4967 24.909 91.4197 24.9417 91.2657 25.007C91.1117 25.0723 90.946 25.126 90.7687 25.168C90.596 25.21 90.4 25.231 90.1807 25.231ZM86.9117 18.861V17.706H91.3427V18.861H86.9117ZM96.2458 25.231C95.1538 25.231 94.2624 24.8717 93.5718 24.153C92.8811 23.4297 92.5358 22.4963 92.5358 21.353C92.5358 20.2517 92.8718 19.33 93.5438 18.588C94.2158 17.846 95.0908 17.475 96.1688 17.475C97.2188 17.475 98.0588 17.7947 98.6888 18.434C99.3234 19.0687 99.6408 19.869 99.6408 20.835V21.654H93.2708V20.625H98.3388C98.3154 20.0557 98.1124 19.5797 97.7298 19.197C97.3471 18.8097 96.8268 18.616 96.1688 18.616C95.4828 18.616 94.9204 18.861 94.4818 19.351C94.0431 19.841 93.8238 20.506 93.8238 21.346C93.8238 22.2093 94.0594 22.8813 94.5308 23.362C95.0021 23.8427 95.5971 24.083 96.3158 24.083C96.6378 24.083 96.9178 24.041 97.1558 23.957C97.3984 23.873 97.6201 23.7563 97.8208 23.607C98.0261 23.453 98.2548 23.2103 98.5068 22.879L99.4728 23.488C99.1928 23.9547 98.9011 24.3023 98.5978 24.531C98.2944 24.755 97.9584 24.9277 97.5898 25.049C97.2258 25.1703 96.7778 25.231 96.2458 25.231ZM104.328 25.231C103.33 25.231 102.492 24.8717 101.815 24.153C101.143 23.4297 100.807 22.4987 100.807 21.36C100.807 20.2027 101.139 19.2693 101.801 18.56C102.469 17.846 103.292 17.489 104.272 17.489C104.842 17.489 105.35 17.6173 105.798 17.874C106.251 18.1307 106.589 18.4503 106.813 18.833H106.855V14.822H108.143V25H106.904V23.677L107.086 23.957H106.862C106.615 24.3303 106.27 24.636 105.826 24.874C105.383 25.112 104.884 25.231 104.328 25.231ZM104.51 24.118C105.192 24.118 105.761 23.866 106.218 23.362C106.68 22.858 106.911 22.193 106.911 21.367C106.911 20.541 106.676 19.876 106.204 19.372C105.738 18.8633 105.173 18.609 104.51 18.609C103.824 18.609 103.25 18.8633 102.788 19.372C102.326 19.876 102.095 20.5387 102.095 21.36C102.095 22.1767 102.324 22.8417 102.781 23.355C103.239 23.8637 103.815 24.118 104.51 24.118Z" fill="#358162"/>
<path d="M119 17.5L124 22.5L129 17.5" stroke="#D9D9D9" stroke-width="1.66667" stroke-linecap="round" stroke-linejoin="round"/>
<defs>
<clipPath id="clip0_3056_7137">
<rect width="20" height="20" fill="white" transform="translate(10 10)"/>
</clipPath>
</defs>
</svg>
